<svg width="512" height="512" viewBox="0 0 512 512" fill="none" xmlns="http://www.w3.org/2000/svg">
<g clip-path="url(#clip0_1_2)">
<circle cx="255.5" cy="255.5" r="246.5" fill="#F59694"/>
<path d="M48.8 96H366.92C392.733 96 414.147 100.693 431.16 110.08C448.173 119.173 460.933 131.053 469.44 145.72C477.947 160.093 482.2 175.347 482.2 191.48C482.2 208.2 477.507 224.48 468.12 240.32C459.027 255.867 445.093 268.627 426.32 278.6C407.84 288.573 384.667 293.56 356.8 293.56C355.627 293.56 352.693 293.56 348 293.56C343.307 293.56 338.467 293.56 333.48 293.56C328.787 293.56 325.707 293.56 324.24 293.56C324.24 293.56 324.24 293.707 324.24 294C324.24 294.293 324.24 294.44 324.24 294.44C324.24 294.44 324.24 294.587 324.24 294.88C324.24 294.88 324.24 295.027 324.24 295.32H424.12L491.88 426H282.88C277.307 411.04 271.587 396.08 265.72 381.12C260.147 366.16 254.427 351.2 248.56 336.24C242.987 321.28 237.267 306.32 231.4 291.36H282.44C288.307 291.36 293.44 290.48 297.84 288.72C302.533 286.96 306.347 284.613 309.28 281.68C312.213 278.747 314.413 275.52 315.88 272C317.347 268.187 318.08 264.373 318.08 260.56C318.08 255.28 316.76 250.293 314.12 245.6C311.48 240.907 307.52 237.093 302.24 234.16C296.96 231.227 290.36 229.76 282.44 229.76H232.28C232.28 229.76 232.133 229.907 231.84 230.2C231.84 230.2 231.693 230.2 231.4 230.2C231.4 230.2 231.4 230.347 231.4 230.64C231.4 249.707 231.4 263.787 231.4 272.88C231.4 281.68 231.4 287.253 231.4 289.6C231.4 291.653 231.4 292.387 231.4 291.8C231.4 291.8 231.4 293.413 231.4 296.64C231.4 299.573 231.4 303.68 231.4 308.96C231.4 314.24 231.4 320.253 231.4 327C231.4 336.68 231.4 347.387 231.4 359.12C231.4 370.853 231.4 382.587 231.4 394.32C231.4 405.76 231.4 416.32 231.4 426H48.8C48.8 407.227 48.8 388.453 48.8 369.68C48.8 350.613 48.8 331.693 48.8 312.92C48.8 294.147 48.8 275.373 48.8 256.6C48.8 237.533 48.8 218.613 48.8 199.84C48.8 182.533 48.8 165.227 48.8 147.92C48.8 130.613 48.8 113.307 48.8 96Z" fill="#EDD4CD"/>
<path d="M26.8 69H344.92C370.733 69 392.147 73.6933 409.16 83.08C426.173 92.1733 438.933 104.053 447.44 118.72C455.947 133.093 460.2 148.347 460.2 164.48C460.2 181.2 455.507 197.48 446.12 213.32C437.027 228.867 423.093 241.627 404.32 251.6C385.84 261.573 362.667 266.56 334.8 266.56C333.627 266.56 330.693 266.56 326 266.56C321.307 266.56 316.467 266.56 311.48 266.56C306.787 266.56 303.707 266.56 302.24 266.56C302.24 266.56 302.24 266.707 302.24 267C302.24 267.293 302.24 267.44 302.24 267.44C302.24 267.44 302.24 267.587 302.24 267.88C302.24 267.88 302.24 268.027 302.24 268.32H402.12L469.88 399H260.88C255.307 384.04 249.587 369.08 243.72 354.12C238.147 339.16 232.427 324.2 226.56 309.24C220.987 294.28 215.267 279.32 209.4 264.36H260.44C266.307 264.36 271.44 263.48 275.84 261.72C280.533 259.96 284.347 257.613 287.28 254.68C290.213 251.747 292.413 248.52 293.88 245C295.347 241.187 296.08 237.373 296.08 233.56C296.08 228.28 294.76 223.293 292.12 218.6C289.48 213.907 285.52 210.093 280.24 207.16C274.96 204.227 268.36 202.76 260.44 202.76H210.28C210.28 202.76 210.133 202.907 209.84 203.2C209.84 203.2 209.693 203.2 209.4 203.2C209.4 203.2 209.4 203.347 209.4 203.64C209.4 222.707 209.4 236.787 209.4 245.88C209.4 254.68 209.4 260.253 209.4 262.6C209.4 264.653 209.4 265.387 209.4 264.8C209.4 264.8 209.4 266.413 209.4 269.64C209.4 272.573 209.4 276.68 209.4 281.96C209.4 287.24 209.4 293.253 209.4 300C209.4 309.68 209.4 320.387 209.4 332.12C209.4 343.853 209.4 355.587 209.4 367.32C209.4 378.76 209.4 389.32 209.4 399H26.8C26.8 380.227 26.8 361.453 26.8 342.68C26.8 323.613 26.8 304.693 26.8 285.92C26.8 267.147 26.8 248.373 26.8 229.6C26.8 210.533 26.8 191.613 26.8 172.84C26.8 155.533 26.8 138.227 26.8 120.92C26.8 103.613 26.8 86.3066 26.8 69Z" fill="#670A14"/>
</g>
<defs>
<clipPath id="clip0_1_2">
<rect width="512" height="512" fill="white"/>
</clipPath>
</defs>
</svg>
